<svg version="1.0" xmlns="http://www.w3.org/2000/svg"
 width="1600.000000pt" height="516.000000pt" viewBox="0 0 1600.000000 516.000000"
 preserveAspectRatio="xMidYMid meet">
<g transform="translate(0.000000,516.000000) scale(0.100000,-0.100000)"
fill="#000000" stroke="none">
<path d="M12790 3420 l0 -1390 730 0 730 0 0 420 0 421 123 -3 122 -3 3 -418
c2 -360 4 -417 17 -417 13 0 15 62 17 458 l3 457 223 3 222 2 0 -460 c0 -401
2 -460 15 -460 13 0 15 56 17 417 l3 418 123 3 122 3 0 -421 0 -420 170 0 170
0 0 1390 0 1390 -1405 0 -1405 0 0 -1390z m2090 840 l115 -70 -240 0 -240 0
35 22 c127 78 196 118 205 118 6 0 62 -31 125 -70z m124 -117 c2 -10 7 -43 11
-73 4 -30 9 -63 11 -72 5 -17 -13 -18 -271 -18 l-277 0 5 23 c3 12 9 49 13 82
3 33 8 63 11 68 2 4 114 7 248 7 223 0 244 -1 249 -17z m114 -345 l3 -148 24
0 25 0 0 -290 c0 -283 0 -290 20 -290 18 0 20 -7 20 -85 l0 -85 -100 0 -100 0
0 35 0 35 -255 0 -255 0 0 -35 0 -35 -100 0 -100 0 0 85 c0 78 2 85 20 85 20
0 20 7 20 290 l0 290 25 0 25 0 0 143 c0 79 3 147 7 150 4 4 167 6 362 5 l356
-3 3 -147z"/>
<path d="M14610 3830 c0 -38 4 -50 15 -50 10 0 15 11 15 35 0 24 5 35 15 35 8
0 15 7 15 15 0 10 -10 15 -30 15 -29 0 -30 -1 -30 -50z"/>
<path d="M14720 3830 c0 -38 4 -50 15 -50 10 0 15 11 15 35 0 24 5 35 15 35 8
0 15 7 15 15 0 10 -10 15 -30 15 -29 0 -30 -1 -30 -50z"/>
<path d="M14840 3830 c0 -27 5 -50 10 -50 6 0 10 16 10 35 0 28 4 35 20 35 11
0 20 7 20 15 0 10 -10 15 -30 15 -29 0 -30 -1 -30 -50z"/>
<path d="M14440 3612 c0 -29 30 -32 315 -32 279 0 293 1 310 20 18 20 17 20
-303 20 -177 0 -322 -4 -322 -8z"/>
<path d="M14500 3295 c0 -218 1 -225 20 -225 19 0 20 7 20 190 l0 190 45 0
c45 0 45 0 45 35 l0 35 -65 0 -65 0 0 -225z"/>
<path d="M14690 3295 c0 -218 1 -225 20 -225 19 0 20 7 20 190 l0 190 45 0
c45 0 45 0 45 35 l0 35 -65 0 -65 0 0 -225z"/>
<path d="M14870 3453 c0 -38 3 -139 7 -225 6 -145 8 -158 25 -158 17 0 18 12
18 190 l0 190 45 0 c45 0 45 0 45 35 l0 35 -70 0 -70 0 0 -67z"/>
<path d="M14703 2815 c-41 -17 -73 -69 -73 -116 0 -81 83 -143 162 -120 113
34 121 192 12 237 -41 17 -60 17 -101 -1z m97 -30 c36 -19 50 -43 50 -87 0
-67 -60 -110 -125 -88 -79 26 -87 143 -10 176 39 17 50 17 85 -1z"/>
<path d="M6224 1510 c-67 -14 -110 -36 -158 -80 -65 -60 -89 -116 -89 -206 1
-135 59 -207 253 -309 129 -69 180 -116 180 -169 0 -47 -38 -82 -105 -97 -67
-15 -143 -2 -226 40 -42 21 -61 26 -67 18 -11 -14 -72 -134 -72 -142 0 -8 90
-50 150 -71 83 -28 265 -26 342 4 152 61 229 190 198 336 -22 106 -85 169
-268 265 -56 30 -116 69 -132 88 -84 95 18 186 171 154 30 -6 78 -23 107 -36
30 -14 58 -25 63 -25 6 0 9 40 7 93 l-3 92 -70 23 c-77 26 -214 37 -281 22z"/>
<path d="M9751 1505 c-238 -54 -401 -268 -401 -525 0 -71 27 -179 62 -250 86
-176 281 -273 513 -257 314 23 518 280 477 600 -27 211 -135 348 -324 414 -89
31 -236 39 -327 18z m264 -192 c56 -30 99 -78 132 -148 25 -54 28 -70 28 -170
0 -133 -22 -197 -87 -264 -61 -62 -116 -85 -208 -85 -165 -1 -272 99 -300 281
-27 171 43 327 175 390 43 21 61 24 135 20 61 -2 96 -9 125 -24z"/>
<path d="M15230 1510 c-153 -33 -250 -143 -250 -286 0 -140 65 -214 296 -333
121 -62 157 -112 129 -179 -36 -83 -199 -92 -333 -17 -25 14 -46 25 -48 25 -3
0 -55 -96 -82 -151 -1 -3 33 -22 76 -43 247 -115 543 -39 608 157 20 61 15
156 -12 213 -29 61 -102 124 -205 178 -134 70 -179 103 -196 143 -26 64 11
112 98 128 44 8 153 -17 219 -50 l51 -26 -3 98 -3 98 -67 22 c-76 26 -211 37
-278 23z"/>
<path d="M432 1118 l3 -393 27 -55 c30 -62 48 -84 99 -123 55 -41 142 -67 249
-74 289 -18 459 100 490 339 5 40 10 214 10 386 l0 312 -110 0 -110 0 0 -352
c0 -321 -2 -357 -19 -393 -37 -82 -116 -121 -228 -112 -88 7 -140 38 -175 106
l-28 53 0 349 0 349 -105 0 -106 0 3 -392z"/>
<path d="M1580 1000 l0 -510 105 0 105 0 0 345 0 346 83 -109 c45 -59 165
-215 267 -345 l185 -237 103 0 102 0 0 510 0 510 -105 0 -105 0 0 -337 c-1
-321 -2 -337 -18 -316 -9 12 -127 164 -262 337 l-245 315 -107 1 -108 0 0
-510z"/>
<path d="M2810 1000 l0 -510 110 0 110 0 0 510 0 510 -110 0 -110 0 0 -510z"/>
<path d="M3136 1497 c3 -8 96 -238 208 -513 l204 -499 83 0 83 0 223 505 c123
278 223 508 223 513 0 4 -47 7 -105 7 -104 0 -105 0 -119 -27 -14 -28 -251
-595 -278 -667 l-15 -39 -12 34 c-6 19 -68 184 -138 367 l-127 332 -118 0
c-93 0 -116 -3 -112 -13z"/>
<path d="M4280 1000 l0 -510 295 0 295 0 0 85 0 85 -185 0 -185 0 0 130 0 130
160 0 160 0 0 90 0 90 -160 0 -160 0 0 115 0 115 162 2 161 3 24 75 c12 41 23
81 23 88 0 9 -66 12 -295 12 l-295 0 0 -510z"/>
<path d="M5110 1001 l0 -511 105 0 105 0 0 195 0 195 40 0 c54 0 65 -13 186
-216 54 -91 103 -168 109 -171 6 -2 62 -2 123 -1 l112 3 -83 140 c-89 151
-180 290 -197 300 -16 10 -12 21 14 33 43 19 97 74 123 125 20 40 25 65 25
122 0 104 -38 184 -112 230 -74 47 -131 57 -347 62 l-203 6 0 -512z m377 310
c55 -26 77 -67 71 -138 -8 -89 -64 -133 -173 -133 l-65 0 0 145 0 145 63 0
c39 0 77 -7 104 -19z"/>
<path d="M6810 1000 l0 -510 105 0 105 0 0 510 0 510 -105 0 -105 0 0 -510z"/>
<path d="M7170 1420 l0 -90 150 0 150 0 0 -420 0 -420 105 0 105 0 0 420 0
420 138 0 139 0 21 74 c12 41 22 81 22 90 0 14 -43 16 -415 16 l-415 0 0 -90z"/>
<path d="M8020 1505 c0 -2 79 -142 175 -309 l175 -305 0 -200 0 -201 105 0
105 0 0 193 0 194 171 299 c94 164 175 307 180 317 9 16 1 17 -103 17 l-113 0
-116 -216 -116 -216 -76 144 c-41 79 -93 175 -114 213 l-38 70 -118 3 c-64 1
-117 0 -117 -3z"/>
<path d="M10600 1000 l0 -510 110 0 110 0 0 215 0 215 160 0 160 0 0 85 0 85
-160 0 -160 0 0 120 0 120 162 2 161 3 14 40 c7 22 20 61 28 88 l14 47 -300 0
-299 0 0 -510z"/>
<path d="M11710 995 l0 -505 285 0 285 0 0 85 0 85 -177 2 -178 3 -3 418 -2
417 -105 0 -105 0 0 -505z"/>
<path d="M12420 995 l0 -505 295 0 295 0 0 85 0 85 -187 2 -188 3 -3 128 -3
127 166 0 165 0 0 85 0 85 -162 2 -163 3 -3 118 -3 117 164 0 163 0 23 73 c13
39 26 78 28 85 4 9 -58 12 -291 12 l-296 0 0 -505z"/>
<path d="M13190 995 l0 -505 295 0 295 0 0 85 0 85 -185 0 -185 0 0 130 0 130
160 0 160 0 0 85 0 85 -160 0 -160 0 0 120 0 120 159 0 159 0 26 78 c14 42 26
80 26 85 0 4 -133 7 -295 7 l-295 0 0 -505z"/>
<path d="M13970 995 l0 -505 213 0 c179 0 226 3 289 19 201 52 337 177 384
355 16 60 18 212 3 275 -27 118 -115 235 -218 290 -111 59 -186 71 -443 71
l-228 0 0 -505z m482 305 c119 -45 189 -154 191 -295 0 -112 -24 -178 -91
-245 -72 -71 -122 -90 -264 -97 l-108 -6 0 338 0 338 108 -6 c75 -3 124 -11
164 -27z"/>
</g>
</svg>
